# xmcd
#
# Track frame offsets:
#	150
#	12660
#	34992
#	61527
#	81510
#	105050
#	124265
#	146690
#	165555
#	183377
#	212520
#	229250
#
# Disc length: 3296 seconds
#
# Revision: 6
# Processed by: cddbd v1.5.2PL0 Copyright (c) Steve Scherf et al.
# Submitted via: VUPlayer 2.49
#
DISCID=9d0cde0c
DTITLE=Frederick Rousseau - Mo
DYEAR=1994
DGENRE=New Age
TTITLE0=The Legend
TTITLE1=Maboroshi Quest
TTITLE2=Tale of Okinawa
TTITLE3=The March
TTITLE4=The Prayer
TTITLE5=Kabuki Masks
TTITLE6=Wood Spirits
TTITLE7=Seventh Circle
TTITLE8=The Dream of the Snowflake
TTITLE9=La femme et son ombre
TTITLE10=Warriors
TTITLE11=Woman to Child
EXTD=Vocals: Shisui Enomoto.\nNarration voice: Miho.
EXTT0=
EXTT1=
EXTT2=
EXTT3=
EXTT4=
EXTT5=
EXTT6=
EXTT7=
EXTT8=
EXTT9=
EXTT10=
EXTT11=
PLAYORDER=
